<svg xmlns="http://www.w3.org/2000/svg" width="2170" height="725" viewBox="0 0 2170 725" role="img" aria-labelledby="title description">
  <title id="title">Black Opal Carbons</title>
  <description id="description">Black Opal Carbons, formerly IndoCarb AC LLC, a Black Opal Group company.</description>
  <style>
    #wordmark path { stroke-width: 2.4; }
  </style>
  <defs>
    <linearGradient id="goldPetal" x1="0" y1="0.35" x2="1" y2="0.65">
      <stop offset="0" stop-color="#b87314"/>
      <stop offset="0.42" stop-color="#e2b848"/>
      <stop offset="0.72" stop-color="#f6dd72"/>
      <stop offset="1" stop-color="#d49a20"/>
    </linearGradient>
    <linearGradient id="goldText" gradientUnits="userSpaceOnUse" x1="395" y1="250" x2="2120" y2="300">
      <stop offset="0" stop-color="#b86d12"/>
      <stop offset="0.2" stop-color="#d69c27"/>
      <stop offset="0.52" stop-color="#f0cc58"/>
      <stop offset="0.78" stop-color="#f6df78"/>
      <stop offset="1" stop-color="#f4e88e"/>
    </linearGradient>
    <linearGradient id="goldLower" gradientUnits="userSpaceOnUse" x1="500" y1="410" x2="2040" y2="535">
      <stop offset="0" stop-color="#d2931e"/>
      <stop offset="0.48" stop-color="#e9bd45"/>
      <stop offset="1" stop-color="#f3d866"/>
    </linearGradient>
    <linearGradient id="redText" x1="0" y1="0" x2="0" y2="1">
      <stop offset="0" stop-color="#ff1a20"/>
      <stop offset="0.52" stop-color="#f10811"/>
      <stop offset="1" stop-color="#dc000b"/>
    </linearGradient>
  </defs>

  <g id="flower-mark" fill="url(#goldPetal)" stroke="#b77a12" stroke-width="1.25" stroke-linejoin="round">
      <path d="M155.0 165.0L159.0 152.0L162.0 150.0L173.0 155.0L184.0 163.0L196.0 178.0L202.0 196.0L202.0 215.0L197.0 231.0L190.0 230.0L180.0 225.0L163.0 207.0L155.0 187.0Z"/>
      <path d="M228.0 194.0L231.0 183.0L242.0 166.0L250.0 159.0L270.0 150.0L275.0 167.0L276.0 180.0L271.0 201.0L261.0 216.0L247.0 227.0L233.0 232.0L228.0 217.0Z"/>
      <path d="M85.0 224.0L92.0 220.0L108.0 216.0L126.0 217.0L136.0 220.0L155.0 231.0L168.0 248.0L171.0 257.0L151.0 264.0L132.0 264.0L118.0 260.0L105.0 253.0L97.0 245.0L91.0 237.0Z"/>
      <path d="M260.0 255.0L273.0 234.0L284.0 225.0L294.0 220.0L310.0 216.0L321.0 216.0L332.0 218.0L345.0 224.0L336.0 242.0L326.0 252.0L312.0 260.0L296.0 264.0L280.0 264.0L265.0 260.0L261.0 258.0Z"/>
      <path d="M260.0 294.0L266.0 290.0L281.0 286.0L295.0 286.0L311.0 290.0L325.0 298.0L334.0 307.0L345.0 327.0L323.0 333.0L309.0 333.0L293.0 329.0L282.0 323.0L270.0 312.0L264.0 304.0Z"/>
      <path d="M85.0 327.0L96.0 308.0L105.0 299.0L119.0 291.0L131.0 287.0L155.0 287.0L171.0 294.0L166.0 306.0L158.0 316.0L136.0 330.0L122.0 333.0L103.0 333.0Z"/>
      <path d="M228.0 336.0L232.0 322.0L236.0 319.0L255.0 329.0L268.0 344.0L275.0 363.0L276.0 372.0L276.0 382.0L270.0 402.0L255.0 396.0L244.0 388.0L237.0 380.0L229.0 363.0Z"/>
      <path d="M154.0 371.0L159.0 350.0L165.0 340.0L182.0 325.0L196.0 320.0L202.0 335.0L203.0 350.0L199.0 369.0L189.0 385.0L174.0 397.0L164.0 402.0L160.0 402.0L155.0 385.0Z"/>
  </g>

  <g id="wordmark">
    <path d="M487.528 297.808Q487.528 305.104 484.776 309.776Q482.024 314.448 477.736 317.136Q473.448 319.824 468.264 320.912Q463.080 322.000 458.344 322.000L430.568 322.000L430.568 231.376L455.272 231.376Q460.392 231.376 465.448 232.400Q470.504 233.424 474.472 235.856Q478.440 238.288 480.872 242.384Q483.304 246.480 483.304 252.752Q483.304 257.616 481.768 261.200Q480.232 264.784 477.608 267.344Q474.984 269.904 471.656 271.504Q468.328 273.104 464.872 273.872L464.872 274.128Q468.328 274.512 472.296 275.984Q476.264 277.456 479.656 280.272Q483.048 283.088 485.288 287.440Q487.528 291.792 487.528 297.808ZM480.488 253.136Q480.488 247.632 478.312 243.920Q476.136 240.208 472.552 238.032Q468.968 235.856 464.296 234.896Q459.624 233.936 454.504 233.936L433.384 233.936L433.384 272.976L455.144 272.976Q459.752 272.976 464.296 271.824Q468.840 270.672 472.424 268.304Q476.008 265.936 478.248 262.160Q480.488 258.384 480.488 253.136ZM484.712 298.192Q484.712 292.048 482.216 287.696Q479.720 283.344 475.880 280.656Q472.040 277.968 467.432 276.752Q462.824 275.536 458.472 275.536L433.384 275.536L433.384 319.440L457.064 319.440Q462.952 319.440 468.072 318.224Q473.192 317.008 476.840 314.448Q480.488 311.888 482.600 307.856Q484.712 303.824 484.712 298.192ZM525.904 322.000L525.904 231.376L528.720 231.376L528.720 319.440L573.776 319.440L573.776 322.000ZM672.952 322.000L662.200 296.016L609.592 296.016L598.456 322.000L595.384 322.000L634.680 231.376L638.264 231.376L676.024 322.000ZM636.344 233.168L610.616 293.584L661.304 293.584ZM780.832 310.864Q775.072 317.776 766.304 321.168Q757.536 324.560 748.448 324.560Q738.208 324.560 729.760 320.976Q721.312 317.392 715.168 311.056Q709.024 304.720 705.632 295.888Q702.240 287.056 702.240 276.688Q702.240 266.320 705.632 257.488Q709.024 248.656 715.168 242.320Q721.312 235.984 729.824 232.400Q738.336 228.816 748.448 228.816Q756.896 228.816 764.896 231.696Q772.896 234.576 778.528 240.464L776.736 242.512Q774.048 239.696 770.656 237.584Q767.264 235.472 763.488 234.064Q759.712 232.656 755.872 232.016Q752.032 231.376 748.448 231.376Q738.720 231.376 730.720 234.896Q722.720 238.416 717.024 244.560Q711.328 250.704 708.192 258.960Q705.056 267.216 705.056 276.688Q705.056 286.160 708.128 294.416Q711.200 302.672 716.896 308.816Q722.592 314.960 730.592 318.480Q738.592 322.000 748.448 322.000Q756.896 322.000 765.152 318.736Q773.408 315.472 778.784 308.944ZM819.208 272.976L864.776 231.376L868.872 231.376L822.792 272.976L871.176 322.000L867.208 322.000L819.208 273.232L819.080 273.232L819.080 322.000L816.264 322.000L816.264 231.376L819.080 231.376L819.080 272.976ZM1041.880 276.688Q1041.880 287.184 1038.360 295.952Q1034.840 304.720 1028.632 311.056Q1022.424 317.392 1013.848 320.976Q1005.272 324.560 995.288 324.560Q985.304 324.560 976.728 320.976Q968.152 317.392 961.944 311.056Q955.736 304.720 952.216 295.952Q948.696 287.184 948.696 276.688Q948.696 266.192 952.216 257.424Q955.736 248.656 961.944 242.320Q968.152 235.984 976.664 232.400Q985.176 228.816 995.288 228.816Q1005.400 228.816 1013.912 232.400Q1022.424 235.984 1028.632 242.320Q1034.840 248.656 1038.360 257.424Q1041.880 266.192 1041.880 276.688ZM1039.064 276.688Q1039.064 267.216 1035.864 258.960Q1032.664 250.704 1026.840 244.560Q1021.016 238.416 1012.952 234.896Q1004.888 231.376 995.288 231.376Q985.688 231.376 977.624 234.896Q969.560 238.416 963.736 244.560Q957.912 250.704 954.712 258.960Q951.512 267.216 951.512 276.688Q951.512 286.160 954.648 294.416Q957.784 302.672 963.544 308.816Q969.304 314.960 977.368 318.480Q985.432 322.000 995.288 322.000Q1005.144 322.000 1013.208 318.480Q1021.272 314.960 1027.032 308.816Q1032.792 302.672 1035.928 294.416Q1039.064 286.160 1039.064 276.688ZM1134.272 253.904Q1134.272 259.664 1132.160 264.080Q1130.048 268.496 1126.464 271.440Q1122.880 274.384 1118.080 275.920Q1113.280 277.456 1107.904 277.456L1084.480 277.456L1084.480 322.000L1081.664 322.000L1081.664 231.376L1106.240 231.376Q1111.104 231.376 1116.096 232.464Q1121.088 233.552 1125.120 236.112Q1129.152 238.672 1131.712 243.024Q1134.272 247.376 1134.272 253.904ZM1131.456 253.904Q1131.456 248.144 1129.280 244.304Q1127.104 240.464 1123.648 238.160Q1120.192 235.856 1115.904 234.832Q1111.616 233.808 1107.392 233.808L1084.480 233.808L1084.480 275.024L1108.032 275.024Q1112.256 275.024 1116.480 273.872Q1120.704 272.720 1124.032 270.160Q1127.360 267.600 1129.408 263.568Q1131.456 259.536 1131.456 253.904ZM1228.968 322.000L1218.216 296.016L1165.608 296.016L1154.472 322.000L1151.400 322.000L1190.696 231.376L1194.280 231.376L1232.040 322.000ZM1192.360 233.168L1166.632 293.584L1217.320 293.584ZM1264.912 322.000L1264.912 231.376L1267.728 231.376L1267.728 319.440L1312.784 319.440L1312.784 322.000ZM1465.824 310.864Q1460.064 317.776 1451.296 321.168Q1442.528 324.560 1433.440 324.560Q1423.200 324.560 1414.752 320.976Q1406.304 317.392 1400.160 311.056Q1394.016 304.720 1390.624 295.888Q1387.232 287.056 1387.232 276.688Q1387.232 266.320 1390.624 257.488Q1394.016 248.656 1400.160 242.320Q1406.304 235.984 1414.816 232.400Q1423.328 228.816 1433.440 228.816Q1441.888 228.816 1449.888 231.696Q1457.888 234.576 1463.520 240.464L1461.728 242.512Q1459.040 239.696 1455.648 237.584Q1452.256 235.472 1448.480 234.064Q1444.704 232.656 1440.864 232.016Q1437.024 231.376 1433.440 231.376Q1423.712 231.376 1415.712 234.896Q1407.712 238.416 1402.016 244.560Q1396.320 250.704 1393.184 258.960Q1390.048 267.216 1390.048 276.688Q1390.048 286.160 1393.120 294.416Q1396.192 302.672 1401.888 308.816Q1407.584 314.960 1415.584 318.480Q1423.584 322.000 1433.440 322.000Q1441.888 322.000 1450.144 318.736Q1458.400 315.472 1463.776 308.944ZM1566.024 322.000L1555.272 296.016L1502.664 296.016L1491.528 322.000L1488.456 322.000L1527.752 231.376L1531.336 231.376L1569.096 322.000ZM1529.416 233.168L1503.688 293.584L1554.376 293.584ZM1653.424 322.000L1626.032 276.304L1604.784 276.304L1604.784 322.000L1601.968 322.000L1601.968 231.376L1627.056 231.376Q1632.048 231.376 1637.168 232.272Q1642.288 233.168 1646.320 235.664Q1650.352 238.160 1652.912 242.512Q1655.472 246.864 1655.472 253.776Q1655.472 260.176 1653.040 264.400Q1650.608 268.624 1646.768 271.248Q1642.928 273.872 1638.256 275.024Q1633.584 276.176 1629.104 276.176L1656.624 322.000ZM1652.656 253.776Q1652.656 247.888 1650.352 243.984Q1648.048 240.080 1644.272 237.840Q1640.496 235.600 1635.568 234.704Q1630.640 233.808 1625.520 233.808L1604.784 233.808L1604.784 273.872L1626.928 273.872Q1639.472 273.872 1646.064 268.624Q1652.656 263.376 1652.656 253.776ZM1751.960 297.808Q1751.960 305.104 1749.208 309.776Q1746.456 314.448 1742.168 317.136Q1737.880 319.824 1732.696 320.912Q1727.512 322.000 1722.776 322.000L1695.000 322.000L1695.000 231.376L1719.704 231.376Q1724.824 231.376 1729.880 232.400Q1734.936 233.424 1738.904 235.856Q1742.872 238.288 1745.304 242.384Q1747.736 246.480 1747.736 252.752Q1747.736 257.616 1746.200 261.200Q1744.664 264.784 1742.040 267.344Q1739.416 269.904 1736.088 271.504Q1732.760 273.104 1729.304 273.872L1729.304 274.128Q1732.760 274.512 1736.728 275.984Q1740.696 277.456 1744.088 280.272Q1747.480 283.088 1749.720 287.440Q1751.960 291.792 1751.960 297.808ZM1744.920 253.136Q1744.920 247.632 1742.744 243.920Q1740.568 240.208 1736.984 238.032Q1733.400 235.856 1728.728 234.896Q1724.056 233.936 1718.936 233.936L1697.816 233.936L1697.816 272.976L1719.576 272.976Q1724.184 272.976 1728.728 271.824Q1733.272 270.672 1736.856 268.304Q1740.440 265.936 1742.680 262.160Q1744.920 258.384 1744.920 253.136ZM1749.144 298.192Q1749.144 292.048 1746.648 287.696Q1744.152 283.344 1740.312 280.656Q1736.472 277.968 1731.864 276.752Q1727.256 275.536 1722.904 275.536L1697.816 275.536L1697.816 319.440L1721.496 319.440Q1727.384 319.440 1732.504 318.224Q1737.624 317.008 1741.272 314.448Q1744.920 311.888 1747.032 307.856Q1749.144 303.824 1749.144 298.192ZM1879.168 276.688Q1879.168 287.184 1875.648 295.952Q1872.128 304.720 1865.920 311.056Q1859.712 317.392 1851.136 320.976Q1842.560 324.560 1832.576 324.560Q1822.592 324.560 1814.016 320.976Q1805.440 317.392 1799.232 311.056Q1793.024 304.720 1789.504 295.952Q1785.984 287.184 1785.984 276.688Q1785.984 266.192 1789.504 257.424Q1793.024 248.656 1799.232 242.320Q1805.440 235.984 1813.952 232.400Q1822.464 228.816 1832.576 228.816Q1842.688 228.816 1851.200 232.400Q1859.712 235.984 1865.920 242.320Q1872.128 248.656 1875.648 257.424Q1879.168 266.192 1879.168 276.688ZM1876.352 276.688Q1876.352 267.216 1873.152 258.960Q1869.952 250.704 1864.128 244.560Q1858.304 238.416 1850.240 234.896Q1842.176 231.376 1832.576 231.376Q1822.976 231.376 1814.912 234.896Q1806.848 238.416 1801.024 244.560Q1795.200 250.704 1792.000 258.960Q1788.800 267.216 1788.800 276.688Q1788.800 286.160 1791.936 294.416Q1795.072 302.672 1800.832 308.816Q1806.592 314.960 1814.656 318.480Q1822.720 322.000 1832.576 322.000Q1842.432 322.000 1850.496 318.480Q1858.560 314.960 1864.320 308.816Q1870.080 302.672 1873.216 294.416Q1876.352 286.160 1876.352 276.688ZM1987.176 322.000L1922.152 234.960L1921.768 234.960L1921.768 322.000L1918.952 322.000L1918.952 231.376L1922.920 231.376L1988.072 318.288L1988.456 318.288L1988.456 231.376L1991.272 231.376L1991.272 322.000ZM2085.584 300.240Q2085.584 306.000 2083.344 310.544Q2081.104 315.088 2077.392 318.224Q2073.680 321.360 2068.624 322.960Q2063.568 324.560 2058.064 324.560Q2049.616 324.560 2042.640 321.552Q2035.664 318.544 2031.056 313.424L2033.232 311.504Q2038.096 316.752 2044.560 319.376Q2051.024 322.000 2057.936 322.000Q2062.928 322.000 2067.408 320.528Q2071.888 319.056 2075.344 316.304Q2078.800 313.552 2080.784 309.520Q2082.768 305.488 2082.768 300.240Q2082.768 294.992 2080.592 291.408Q2078.416 287.824 2074.960 285.264Q2071.504 282.704 2067.088 280.976Q2062.672 279.248 2058.192 277.840Q2052.560 276.048 2047.888 274.064Q2043.216 272.080 2039.824 269.200Q2036.432 266.320 2034.576 262.288Q2032.720 258.256 2032.720 252.496Q2032.720 246.864 2034.960 242.448Q2037.200 238.032 2041.040 235.024Q2044.880 232.016 2049.936 230.416Q2054.992 228.816 2060.624 228.816Q2067.536 228.816 2073.744 231.440Q2079.952 234.064 2083.920 238.928L2081.744 240.848Q2078.160 236.368 2072.592 233.872Q2067.024 231.376 2060.496 231.376Q2055.888 231.376 2051.472 232.656Q2047.056 233.936 2043.472 236.560Q2039.888 239.184 2037.712 243.152Q2035.536 247.120 2035.536 252.496Q2035.536 257.744 2037.456 261.392Q2039.376 265.040 2042.576 267.600Q2045.776 270.160 2049.808 271.824Q2053.840 273.488 2058.064 274.896Q2063.824 276.816 2068.816 278.800Q2073.808 280.784 2077.584 283.600Q2081.360 286.416 2083.472 290.448Q2085.584 294.480 2085.584 300.240Z" fill="url(#goldText)" stroke="#9c6714" stroke-width="0.9" paint-order="stroke fill"/>
  </g>

  <g id="former-name">
    <path d="M609.275 391.900L641.075 391.900L641.075 396.400L614.225 396.400L614.225 415.300L639.200 415.300L639.200 419.800L614.225 419.800L614.225 445.000L609.275 445.000ZM659.525 418.450Q659.525 412.375 661.550 407.275Q663.575 402.175 667.175 398.462Q670.775 394.750 675.838 392.650Q680.900 390.550 686.975 390.550Q693.050 390.550 698.113 392.650Q703.175 394.750 706.775 398.462Q710.375 402.175 712.400 407.275Q714.425 412.375 714.425 418.450Q714.425 424.525 712.400 429.663Q710.375 434.800 706.775 438.512Q703.175 442.225 698.113 444.288Q693.050 446.350 686.975 446.350Q680.900 446.350 675.838 444.288Q670.775 442.225 667.175 438.512Q663.575 434.800 661.550 429.663Q659.525 424.525 659.525 418.450ZM664.475 418.450Q664.475 423.400 666.050 427.675Q667.625 431.950 670.550 435.100Q673.475 438.250 677.638 440.050Q681.800 441.850 686.975 441.850Q692.150 441.850 696.312 440.050Q700.475 438.250 703.400 435.100Q706.325 431.950 707.900 427.675Q709.475 423.400 709.475 418.450Q709.475 413.500 707.900 409.225Q706.325 404.950 703.400 401.800Q700.475 398.650 696.312 396.850Q692.150 395.050 686.975 395.050Q681.800 395.050 677.638 396.850Q673.475 398.650 670.550 401.800Q667.625 404.950 666.050 409.225Q664.475 413.500 664.475 418.450ZM742.475 415.300L752.975 415.300Q756.875 415.300 759.312 414.325Q761.750 413.350 763.100 411.925Q764.450 410.500 764.938 408.850Q765.425 407.200 765.425 405.850Q765.425 404.500 764.938 402.850Q764.450 401.200 763.100 399.775Q761.750 398.350 759.312 397.375Q756.875 396.400 752.975 396.400L742.475 396.400ZM737.525 391.900L751.475 391.900Q752.525 391.900 754.325 391.975Q756.125 392.050 758.225 392.425Q760.325 392.800 762.500 393.625Q764.675 394.450 766.400 396.025Q768.125 397.600 769.250 400.000Q770.375 402.400 770.375 405.850Q770.375 409.675 769.062 412.150Q767.750 414.625 765.763 416.163Q763.775 417.700 761.375 418.450Q758.975 419.200 756.800 419.500L772.250 445.000L766.625 445.000L751.700 419.800L742.475 419.800L742.475 445.000L737.525 445.000ZM793.475 391.900L800.900 391.900L820.250 436.450L839.600 391.900L846.650 391.900L846.650 445.000L841.700 445.000L841.700 398.200L841.550 398.200L821.300 445.000L819.125 445.000L798.575 398.200L798.425 398.200L798.425 445.000L793.475 445.000ZM872.675 391.900L905.150 391.900L905.150 396.400L877.625 396.400L877.625 415.300L903.425 415.300L903.425 419.800L877.625 419.800L877.625 440.500L906.350 440.500L906.350 445.000L872.675 445.000ZM934.100 415.300L944.600 415.300Q948.500 415.300 950.938 414.325Q953.375 413.350 954.725 411.925Q956.075 410.500 956.562 408.850Q957.050 407.200 957.050 405.850Q957.050 404.500 956.562 402.850Q956.075 401.200 954.725 399.775Q953.375 398.350 950.938 397.375Q948.500 396.400 944.600 396.400L934.100 396.400ZM929.150 391.900L943.100 391.900Q944.150 391.900 945.950 391.975Q947.750 392.050 949.850 392.425Q951.950 392.800 954.125 393.625Q956.300 394.450 958.025 396.025Q959.750 397.600 960.875 400.000Q962.000 402.400 962.000 405.850Q962.000 409.675 960.688 412.150Q959.375 414.625 957.388 416.163Q955.400 417.700 953.000 418.450Q950.600 419.200 948.425 419.500L963.875 445.000L958.250 445.000L943.325 419.800L934.100 419.800L934.100 445.000L929.150 445.000ZM985.625 391.900L990.575 391.900L990.575 440.500L1015.325 440.500L1015.325 445.000L985.625 445.000ZM1038.575 422.125L1019.075 391.900L1025.000 391.900L1041.050 417.100L1057.475 391.900L1063.025 391.900L1043.525 422.125L1043.525 445.000L1038.575 445.000Z" fill="url(#goldLower)" stroke="#a66e12" stroke-width="0.65" paint-order="stroke fill"/>
    <path d="M1112.275 391.900L1117.225 391.900L1117.225 445.000L1112.275 445.000ZM1143.775 391.900L1150.150 391.900L1182.475 438.400L1182.625 438.400L1182.625 391.900L1187.575 391.900L1187.575 445.000L1181.200 445.000L1148.875 398.500L1148.725 398.500L1148.725 445.000L1143.775 445.000ZM1213.450 391.900L1229.875 391.900Q1236.775 391.900 1241.575 393.587Q1246.375 395.275 1249.562 397.900Q1252.750 400.525 1254.587 403.712Q1256.425 406.900 1257.287 409.825Q1258.150 412.750 1258.375 415.113Q1258.600 417.475 1258.600 418.450Q1258.600 419.425 1258.375 421.788Q1258.150 424.150 1257.287 427.075Q1256.425 430.000 1254.587 433.188Q1252.750 436.375 1249.562 439.000Q1246.375 441.625 1241.575 443.312Q1236.775 445.000 1229.875 445.000L1213.450 445.000ZM1218.400 440.500L1228.600 440.500Q1233.850 440.500 1238.425 439.188Q1243.000 437.875 1246.375 435.175Q1249.750 432.475 1251.700 428.312Q1253.650 424.150 1253.650 418.450Q1253.650 412.750 1251.700 408.587Q1249.750 404.425 1246.375 401.725Q1243.000 399.025 1238.425 397.712Q1233.850 396.400 1228.600 396.400L1218.400 396.400ZM1278.250 418.450Q1278.250 412.375 1280.275 407.275Q1282.300 402.175 1285.900 398.462Q1289.500 394.750 1294.562 392.650Q1299.625 390.550 1305.700 390.550Q1311.775 390.550 1316.837 392.650Q1321.900 394.750 1325.500 398.462Q1329.100 402.175 1331.125 407.275Q1333.150 412.375 1333.150 418.450Q1333.150 424.525 1331.125 429.663Q1329.100 434.800 1325.500 438.512Q1321.900 442.225 1316.837 444.288Q1311.775 446.350 1305.700 446.350Q1299.625 446.350 1294.562 444.288Q1289.500 442.225 1285.900 438.512Q1282.300 434.800 1280.275 429.663Q1278.250 424.525 1278.250 418.450ZM1283.200 418.450Q1283.200 423.400 1284.775 427.675Q1286.350 431.950 1289.275 435.100Q1292.200 438.250 1296.362 440.050Q1300.525 441.850 1305.700 441.850Q1310.875 441.850 1315.037 440.050Q1319.200 438.250 1322.125 435.100Q1325.050 431.950 1326.625 427.675Q1328.200 423.400 1328.200 418.450Q1328.200 413.500 1326.625 409.225Q1325.050 404.950 1322.125 401.800Q1319.200 398.650 1315.037 396.850Q1310.875 395.050 1305.700 395.050Q1300.525 395.050 1296.362 396.850Q1292.200 398.650 1289.275 401.800Q1286.350 404.950 1284.775 409.225Q1283.200 413.500 1283.200 418.450ZM1399.975 436.675Q1396.150 441.850 1391.125 444.100Q1386.100 446.350 1380.250 446.350Q1374.175 446.350 1369.112 444.288Q1364.050 442.225 1360.450 438.512Q1356.850 434.800 1354.825 429.663Q1352.800 424.525 1352.800 418.450Q1352.800 412.375 1354.825 407.275Q1356.850 402.175 1360.450 398.462Q1364.050 394.750 1369.112 392.650Q1374.175 390.550 1380.250 390.550Q1385.650 390.550 1390.337 392.462Q1395.025 394.375 1398.550 398.875L1394.500 402.250Q1392.025 398.500 1388.162 396.775Q1384.300 395.050 1380.250 395.050Q1375.075 395.050 1370.912 396.850Q1366.750 398.650 1363.825 401.800Q1360.900 404.950 1359.325 409.225Q1357.750 413.500 1357.750 418.450Q1357.750 423.400 1359.325 427.675Q1360.900 431.950 1363.825 435.100Q1366.750 438.250 1370.912 440.050Q1375.075 441.850 1380.250 441.850Q1382.275 441.850 1384.450 441.363Q1386.625 440.875 1388.688 439.863Q1390.750 438.850 1392.625 437.312Q1394.500 435.775 1395.925 433.600ZM1437.325 391.900L1442.425 391.900L1464.775 445.000L1459.225 445.000L1453.450 430.900L1425.325 430.900L1419.325 445.000L1414.150 445.000ZM1439.650 397.300L1427.275 426.400L1451.650 426.400ZM1489.375 415.300L1499.875 415.300Q1503.775 415.300 1506.213 414.325Q1508.650 413.350 1510.000 411.925Q1511.350 410.500 1511.838 408.850Q1512.325 407.200 1512.325 405.850Q1512.325 404.500 1511.838 402.850Q1511.350 401.200 1510.000 399.775Q1508.650 398.350 1506.213 397.375Q1503.775 396.400 1499.875 396.400L1489.375 396.400ZM1484.425 391.900L1498.375 391.900Q1499.425 391.900 1501.225 391.975Q1503.025 392.050 1505.125 392.425Q1507.225 392.800 1509.400 393.625Q1511.575 394.450 1513.300 396.025Q1515.025 397.600 1516.150 400.000Q1517.275 402.400 1517.275 405.850Q1517.275 409.675 1515.963 412.150Q1514.650 414.625 1512.663 416.163Q1510.675 417.700 1508.275 418.450Q1505.875 419.200 1503.700 419.500L1519.150 445.000L1513.525 445.000L1498.600 419.800L1489.375 419.800L1489.375 445.000L1484.425 445.000ZM1540.900 391.900L1556.200 391.900Q1559.200 391.900 1562.275 392.387Q1565.350 392.875 1567.787 394.413Q1570.225 395.950 1571.763 398.688Q1573.300 401.425 1573.300 405.925Q1573.300 409.975 1570.900 412.975Q1568.500 415.975 1563.775 416.950L1563.775 417.100Q1566.400 417.325 1568.575 418.337Q1570.750 419.350 1572.325 421.038Q1573.900 422.725 1574.763 425.050Q1575.625 427.375 1575.625 430.150Q1575.625 434.725 1573.862 437.613Q1572.100 440.500 1569.438 442.150Q1566.775 443.800 1563.662 444.400Q1560.550 445.000 1557.850 445.000L1540.900 445.000ZM1545.850 414.850L1556.125 414.850Q1559.950 414.850 1562.350 413.913Q1564.750 412.975 1566.100 411.625Q1567.450 410.275 1567.900 408.738Q1568.350 407.200 1568.350 405.925Q1568.350 403.150 1567.412 401.312Q1566.475 399.475 1564.900 398.387Q1563.325 397.300 1561.225 396.850Q1559.125 396.400 1556.800 396.400L1545.850 396.400ZM1545.850 440.500L1557.175 440.500Q1561.525 440.500 1564.188 439.450Q1566.850 438.400 1568.275 436.825Q1569.700 435.250 1570.188 433.488Q1570.675 431.725 1570.675 430.300Q1570.675 427.375 1569.550 425.275Q1568.425 423.175 1566.625 421.863Q1564.825 420.550 1562.537 419.950Q1560.250 419.350 1557.925 419.350L1545.850 419.350ZM1647.925 391.900L1653.025 391.900L1675.375 445.000L1669.825 445.000L1664.050 430.900L1635.925 430.900L1629.925 445.000L1624.750 445.000ZM1650.250 397.300L1637.875 426.400L1662.250 426.400ZM1738.750 436.675Q1734.925 441.850 1729.900 444.100Q1724.875 446.350 1719.025 446.350Q1712.950 446.350 1707.888 444.288Q1702.825 442.225 1699.225 438.512Q1695.625 434.800 1693.600 429.663Q1691.575 424.525 1691.575 418.450Q1691.575 412.375 1693.600 407.275Q1695.625 402.175 1699.225 398.462Q1702.825 394.750 1707.888 392.650Q1712.950 390.550 1719.025 390.550Q1724.425 390.550 1729.112 392.462Q1733.800 394.375 1737.325 398.875L1733.275 402.250Q1730.800 398.500 1726.938 396.775Q1723.075 395.050 1719.025 395.050Q1713.850 395.050 1709.688 396.850Q1705.525 398.650 1702.600 401.800Q1699.675 404.950 1698.100 409.225Q1696.525 413.500 1696.525 418.450Q1696.525 423.400 1698.100 427.675Q1699.675 431.950 1702.600 435.100Q1705.525 438.250 1709.688 440.050Q1713.850 441.850 1719.025 441.850Q1721.050 441.850 1723.225 441.363Q1725.400 440.875 1727.463 439.863Q1729.525 438.850 1731.400 437.312Q1733.275 435.775 1734.700 433.600ZM1791.325 391.900L1796.275 391.900L1796.275 440.500L1821.025 440.500L1821.025 445.000L1791.325 445.000ZM1840.825 391.900L1845.775 391.900L1845.775 440.500L1870.525 440.500L1870.525 445.000L1840.825 445.000ZM1934.050 436.675Q1930.225 441.850 1925.200 444.100Q1920.175 446.350 1914.325 446.350Q1908.250 446.350 1903.188 444.288Q1898.125 442.225 1894.525 438.512Q1890.925 434.800 1888.900 429.663Q1886.875 424.525 1886.875 418.450Q1886.875 412.375 1888.900 407.275Q1890.925 402.175 1894.525 398.462Q1898.125 394.750 1903.188 392.650Q1908.250 390.550 1914.325 390.550Q1919.725 390.550 1924.412 392.462Q1929.100 394.375 1932.625 398.875L1928.575 402.250Q1926.100 398.500 1922.237 396.775Q1918.375 395.050 1914.325 395.050Q1909.150 395.050 1904.987 396.850Q1900.825 398.650 1897.900 401.800Q1894.975 404.950 1893.400 409.225Q1891.825 413.500 1891.825 418.450Q1891.825 423.400 1893.400 427.675Q1894.975 431.950 1897.900 435.100Q1900.825 438.250 1904.987 440.050Q1909.150 441.850 1914.325 441.850Q1916.350 441.850 1918.525 441.363Q1920.700 440.875 1922.763 439.863Q1924.825 438.850 1926.700 437.312Q1928.575 435.775 1930.000 433.600Z" fill="url(#redText)" stroke="#b50009" stroke-width="0.65" paint-order="stroke fill"/>
  </g>

  <rect x="755" y="474" width="1035" height="5.5" rx="1.25" fill="url(#goldLower)"/>

  <g id="group-company">
    <path d="M529.550 500.900L534.650 500.900L557.000 554.000L551.450 554.000L545.675 539.900L517.550 539.900L511.550 554.000L506.375 554.000ZM531.875 506.300L519.500 535.400L543.875 535.400ZM610.450 500.900L625.750 500.900Q628.750 500.900 631.825 501.387Q634.900 501.875 637.337 503.413Q639.775 504.950 641.312 507.688Q642.850 510.425 642.850 514.925Q642.850 518.975 640.450 521.975Q638.050 524.975 633.325 525.950L633.325 526.100Q635.950 526.325 638.125 527.337Q640.300 528.350 641.875 530.038Q643.450 531.725 644.312 534.050Q645.175 536.375 645.175 539.150Q645.175 543.725 643.412 546.612Q641.650 549.500 638.987 551.150Q636.325 552.800 633.212 553.400Q630.100 554.000 627.400 554.000L610.450 554.000ZM615.400 523.850L625.675 523.850Q629.500 523.850 631.900 522.913Q634.300 521.975 635.650 520.625Q637.000 519.275 637.450 517.737Q637.900 516.200 637.900 514.925Q637.900 512.150 636.962 510.312Q636.025 508.475 634.450 507.387Q632.875 506.300 630.775 505.850Q628.675 505.400 626.350 505.400L615.400 505.400ZM615.400 549.500L626.725 549.500Q631.075 549.500 633.737 548.450Q636.400 547.400 637.825 545.825Q639.250 544.250 639.737 542.487Q640.225 540.725 640.225 539.300Q640.225 536.375 639.100 534.275Q637.975 532.175 636.175 530.862Q634.375 529.550 632.087 528.950Q629.800 528.350 627.475 528.350L615.400 528.350ZM670.850 500.900L675.800 500.900L675.800 549.500L700.550 549.500L700.550 554.000L670.850 554.000ZM737.775 500.900L742.875 500.900L765.225 554.000L759.675 554.000L753.900 539.900L725.775 539.900L719.775 554.000L714.600 554.000ZM740.100 506.300L727.725 535.400L752.100 535.400ZM829.750 545.675Q825.925 550.850 820.900 553.100Q815.875 555.350 810.025 555.350Q803.950 555.350 798.888 553.288Q793.825 551.225 790.225 547.513Q786.625 543.800 784.600 538.663Q782.575 533.525 782.575 527.450Q782.575 521.375 784.600 516.275Q786.625 511.175 790.225 507.462Q793.825 503.750 798.888 501.650Q803.950 499.550 810.025 499.550Q815.425 499.550 820.112 501.462Q824.800 503.375 828.325 507.875L824.275 511.250Q821.800 507.500 817.938 505.775Q814.075 504.050 810.025 504.050Q804.850 504.050 800.688 505.850Q796.525 507.650 793.600 510.800Q790.675 513.950 789.100 518.225Q787.525 522.500 787.525 527.450Q787.525 532.400 789.100 536.675Q790.675 540.950 793.600 544.100Q796.525 547.250 800.688 549.050Q804.850 550.850 810.025 550.850Q812.050 550.850 814.225 550.362Q816.400 549.875 818.462 548.862Q820.525 547.850 822.400 546.312Q824.275 544.775 825.700 542.600ZM851.975 500.900L856.925 500.900L856.925 524.300L857.375 524.300L883.100 500.900L889.925 500.900L863.075 525.200L891.425 554.000L884.300 554.000L857.375 526.550L856.925 526.550L856.925 554.000L851.975 554.000ZM940.150 527.450Q940.150 521.375 942.175 516.275Q944.200 511.175 947.800 507.462Q951.400 503.750 956.462 501.650Q961.525 499.550 967.600 499.550Q973.675 499.550 978.737 501.650Q983.800 503.750 987.400 507.462Q991.000 511.175 993.025 516.275Q995.050 521.375 995.050 527.450Q995.050 533.525 993.025 538.663Q991.000 543.800 987.400 547.513Q983.800 551.225 978.737 553.288Q973.675 555.350 967.600 555.350Q961.525 555.350 956.462 553.288Q951.400 551.225 947.800 547.513Q944.200 543.800 942.175 538.663Q940.150 533.525 940.150 527.450ZM945.100 527.450Q945.100 532.400 946.675 536.675Q948.250 540.950 951.175 544.100Q954.100 547.250 958.262 549.050Q962.425 550.850 967.600 550.850Q972.775 550.850 976.937 549.050Q981.100 547.250 984.025 544.100Q986.950 540.950 988.525 536.675Q990.100 532.400 990.100 527.450Q990.100 522.500 988.525 518.225Q986.950 513.950 984.025 510.800Q981.100 507.650 976.937 505.850Q972.775 504.050 967.600 504.050Q962.425 504.050 958.262 505.850Q954.100 507.650 951.175 510.800Q948.250 513.950 946.675 518.225Q945.100 522.500 945.100 527.450ZM1019.300 500.900L1034.600 500.900Q1037.375 500.900 1040.412 501.538Q1043.450 502.175 1045.962 503.750Q1048.475 505.325 1050.087 508.062Q1051.700 510.800 1051.700 514.925Q1051.700 518.525 1050.387 521.150Q1049.075 523.775 1046.862 525.462Q1044.650 527.150 1041.762 527.975Q1038.875 528.800 1035.725 528.800L1024.250 528.800L1024.250 554.000L1019.300 554.000ZM1024.250 524.300L1035.500 524.300Q1037.600 524.300 1039.625 523.812Q1041.650 523.325 1043.225 522.237Q1044.800 521.150 1045.775 519.350Q1046.750 517.550 1046.750 514.925Q1046.750 512.375 1045.737 510.575Q1044.725 508.775 1043.112 507.613Q1041.500 506.450 1039.400 505.925Q1037.300 505.400 1035.200 505.400L1024.250 505.400ZM1086.225 500.900L1091.325 500.900L1113.675 554.000L1108.125 554.000L1102.350 539.900L1074.225 539.900L1068.225 554.000L1063.050 554.000ZM1088.550 506.300L1076.175 535.400L1100.550 535.400ZM1134.475 500.900L1139.425 500.900L1139.425 549.500L1164.175 549.500L1164.175 554.000L1134.475 554.000ZM1261.575 550.550Q1256.925 553.175 1251.938 554.263Q1246.950 555.350 1241.775 555.350Q1235.700 555.350 1230.638 553.288Q1225.575 551.225 1221.975 547.513Q1218.375 543.800 1216.350 538.663Q1214.325 533.525 1214.325 527.450Q1214.325 521.375 1216.350 516.275Q1218.375 511.175 1221.975 507.462Q1225.575 503.750 1230.638 501.650Q1235.700 499.550 1241.775 499.550Q1253.625 499.550 1260.900 506.900L1257.300 510.650Q1256.100 509.225 1254.338 507.988Q1252.575 506.750 1250.513 505.887Q1248.450 505.025 1246.200 504.538Q1243.950 504.050 1241.775 504.050Q1236.600 504.050 1232.438 505.850Q1228.275 507.650 1225.350 510.800Q1222.425 513.950 1220.850 518.225Q1219.275 522.500 1219.275 527.450Q1219.275 532.400 1220.850 536.675Q1222.425 540.950 1225.350 544.100Q1228.275 547.250 1232.438 549.050Q1236.600 550.850 1241.775 550.850Q1246.050 550.850 1249.800 550.175Q1253.550 549.500 1256.625 547.700L1256.625 529.850L1243.875 529.850L1243.875 525.350L1261.575 525.350ZM1294.225 524.300L1304.725 524.300Q1308.625 524.300 1311.062 523.325Q1313.500 522.350 1314.850 520.925Q1316.200 519.500 1316.688 517.850Q1317.175 516.200 1317.175 514.850Q1317.175 513.500 1316.688 511.850Q1316.200 510.200 1314.850 508.775Q1313.500 507.350 1311.062 506.375Q1308.625 505.400 1304.725 505.400L1294.225 505.400ZM1289.275 500.900L1303.225 500.900Q1304.275 500.900 1306.075 500.975Q1307.875 501.050 1309.975 501.425Q1312.075 501.800 1314.250 502.625Q1316.425 503.450 1318.150 505.025Q1319.875 506.600 1321.000 509.000Q1322.125 511.400 1322.125 514.850Q1322.125 518.675 1320.812 521.150Q1319.500 523.625 1317.513 525.163Q1315.525 526.700 1313.125 527.450Q1310.725 528.200 1308.550 528.500L1324.000 554.000L1318.375 554.000L1303.450 528.800L1294.225 528.800L1294.225 554.000L1289.275 554.000ZM1343.450 527.450Q1343.450 521.375 1345.475 516.275Q1347.500 511.175 1351.100 507.462Q1354.700 503.750 1359.763 501.650Q1364.825 499.550 1370.900 499.550Q1376.975 499.550 1382.037 501.650Q1387.100 503.750 1390.700 507.462Q1394.300 511.175 1396.325 516.275Q1398.350 521.375 1398.350 527.450Q1398.350 533.525 1396.325 538.663Q1394.300 543.800 1390.700 547.513Q1387.100 551.225 1382.037 553.288Q1376.975 555.350 1370.900 555.350Q1364.825 555.350 1359.763 553.288Q1354.700 551.225 1351.100 547.513Q1347.500 543.800 1345.475 538.663Q1343.450 533.525 1343.450 527.450ZM1348.400 527.450Q1348.400 532.400 1349.975 536.675Q1351.550 540.950 1354.475 544.100Q1357.400 547.250 1361.562 549.050Q1365.725 550.850 1370.900 550.850Q1376.075 550.850 1380.237 549.050Q1384.400 547.250 1387.325 544.100Q1390.250 540.950 1391.825 536.675Q1393.400 532.400 1393.400 527.450Q1393.400 522.500 1391.825 518.225Q1390.250 513.950 1387.325 510.800Q1384.400 507.650 1380.237 505.850Q1376.075 504.050 1370.900 504.050Q1365.725 504.050 1361.562 505.850Q1357.400 507.650 1354.475 510.800Q1351.550 513.950 1349.975 518.225Q1348.400 522.500 1348.400 527.450ZM1460.325 533.675Q1460.325 537.950 1459.350 541.850Q1458.375 545.750 1456.087 548.750Q1453.800 551.750 1450.087 553.550Q1446.375 555.350 1440.975 555.350Q1435.575 555.350 1431.862 553.550Q1428.150 551.750 1425.862 548.750Q1423.575 545.750 1422.600 541.850Q1421.625 537.950 1421.625 533.675L1421.625 500.900L1426.575 500.900L1426.575 532.400Q1426.575 535.250 1427.100 538.475Q1427.625 541.700 1429.162 544.475Q1430.700 547.250 1433.512 549.050Q1436.325 550.850 1440.975 550.850Q1445.625 550.850 1448.437 549.050Q1451.250 547.250 1452.787 544.475Q1454.325 541.700 1454.850 538.475Q1455.375 535.250 1455.375 532.400L1455.375 500.900L1460.325 500.900ZM1487.050 500.900L1502.350 500.900Q1505.125 500.900 1508.163 501.538Q1511.200 502.175 1513.713 503.750Q1516.225 505.325 1517.838 508.062Q1519.450 510.800 1519.450 514.925Q1519.450 518.525 1518.138 521.150Q1516.825 523.775 1514.613 525.462Q1512.400 527.150 1509.513 527.975Q1506.625 528.800 1503.475 528.800L1492.000 528.800L1492.000 554.000L1487.050 554.000ZM1492.000 524.300L1503.250 524.300Q1505.350 524.300 1507.375 523.812Q1509.400 523.325 1510.975 522.237Q1512.550 521.150 1513.525 519.350Q1514.500 517.550 1514.500 514.925Q1514.500 512.375 1513.488 510.575Q1512.475 508.775 1510.863 507.613Q1509.250 506.450 1507.150 505.925Q1505.050 505.400 1502.950 505.400L1492.000 505.400ZM1619.625 545.675Q1615.800 550.850 1610.775 553.100Q1605.750 555.350 1599.900 555.350Q1593.825 555.350 1588.763 553.288Q1583.700 551.225 1580.100 547.513Q1576.500 543.800 1574.475 538.663Q1572.450 533.525 1572.450 527.450Q1572.450 521.375 1574.475 516.275Q1576.500 511.175 1580.100 507.462Q1583.700 503.750 1588.763 501.650Q1593.825 499.550 1599.900 499.550Q1605.300 499.550 1609.987 501.462Q1614.675 503.375 1618.200 507.875L1614.150 511.250Q1611.675 507.500 1607.812 505.775Q1603.950 504.050 1599.900 504.050Q1594.725 504.050 1590.562 505.850Q1586.400 507.650 1583.475 510.800Q1580.550 513.950 1578.975 518.225Q1577.400 522.500 1577.400 527.450Q1577.400 532.400 1578.975 536.675Q1580.550 540.950 1583.475 544.100Q1586.400 547.250 1590.562 549.050Q1594.725 550.850 1599.900 550.850Q1601.925 550.850 1604.100 550.362Q1606.275 549.875 1608.338 548.862Q1610.400 547.850 1612.275 546.312Q1614.150 544.775 1615.575 542.600ZM1638.400 527.450Q1638.400 521.375 1640.425 516.275Q1642.450 511.175 1646.050 507.462Q1649.650 503.750 1654.713 501.650Q1659.775 499.550 1665.850 499.550Q1671.925 499.550 1676.987 501.650Q1682.050 503.750 1685.650 507.462Q1689.250 511.175 1691.275 516.275Q1693.300 521.375 1693.300 527.450Q1693.300 533.525 1691.275 538.663Q1689.250 543.800 1685.650 547.513Q1682.050 551.225 1676.987 553.288Q1671.925 555.350 1665.850 555.350Q1659.775 555.350 1654.713 553.288Q1649.650 551.225 1646.050 547.513Q1642.450 543.800 1640.425 538.663Q1638.400 533.525 1638.400 527.450ZM1643.350 527.450Q1643.350 532.400 1644.925 536.675Q1646.500 540.950 1649.425 544.100Q1652.350 547.250 1656.513 549.050Q1660.675 550.850 1665.850 550.850Q1671.025 550.850 1675.188 549.050Q1679.350 547.250 1682.275 544.100Q1685.200 540.950 1686.775 536.675Q1688.350 532.400 1688.350 527.450Q1688.350 522.500 1686.775 518.225Q1685.200 513.950 1682.275 510.800Q1679.350 507.650 1675.188 505.850Q1671.025 504.050 1665.850 504.050Q1660.675 504.050 1656.513 505.850Q1652.350 507.650 1649.425 510.800Q1646.500 513.950 1644.925 518.225Q1643.350 522.500 1643.350 527.450ZM1717.025 500.900L1724.450 500.900L1743.800 545.450L1763.150 500.900L1770.200 500.900L1770.200 554.000L1765.250 554.000L1765.250 507.200L1765.100 507.200L1744.850 554.000L1742.675 554.000L1722.125 507.200L1721.975 507.200L1721.975 554.000L1717.025 554.000ZM1797.375 500.900L1812.675 500.900Q1815.450 500.900 1818.488 501.538Q1821.525 502.175 1824.038 503.750Q1826.550 505.325 1828.163 508.062Q1829.775 510.800 1829.775 514.925Q1829.775 518.525 1828.463 521.150Q1827.150 523.775 1824.938 525.462Q1822.725 527.150 1819.838 527.975Q1816.950 528.800 1813.800 528.800L1802.325 528.800L1802.325 554.000L1797.375 554.000ZM1802.325 524.300L1813.575 524.300Q1815.675 524.300 1817.700 523.812Q1819.725 523.325 1821.300 522.237Q1822.875 521.150 1823.850 519.350Q1824.825 517.550 1824.825 514.925Q1824.825 512.375 1823.813 510.575Q1822.800 508.775 1821.188 507.613Q1819.575 506.450 1817.475 505.925Q1815.375 505.400 1813.275 505.400L1802.325 505.400ZM1864.300 500.900L1869.400 500.900L1891.750 554.000L1886.200 554.000L1880.425 539.900L1852.300 539.900L1846.300 554.000L1841.125 554.000ZM1866.625 506.300L1854.250 535.400L1878.625 535.400ZM1912.550 500.900L1918.925 500.900L1951.250 547.400L1951.400 547.400L1951.400 500.900L1956.350 500.900L1956.350 554.000L1949.975 554.000L1917.650 507.500L1917.500 507.500L1917.500 554.000L1912.550 554.000ZM1995.825 531.125L1976.325 500.900L1982.250 500.900L1998.300 526.100L2014.725 500.900L2020.275 500.900L2000.775 531.125L2000.775 554.000L1995.825 554.000Z" fill="url(#goldLower)" stroke="#a66e12" stroke-width="0.65" paint-order="stroke fill"/>
  </g>
</svg>
